<svg width="48" height="48" viewBox="0 0 48 48" fill="none" xmlns="http://www.w3.org/2000/svg">
<g clip-path="url(#clip0_2_8)">
<path fill-rule="evenodd" clip-rule="evenodd" d="M37.125 28.875C37.125 29.4963 36.6213 30 36 30C35.3787 30 34.875 29.4963 34.875 28.875C34.875 28.2537 35.3787 27.75 36 27.75C36.6213 27.75 37.125 28.2537 37.125 28.875ZM36 18.75C33.9319 18.75 32.25 20.2641 32.25 22.125V22.5C32.25 22.9142 32.5858 23.25 33 23.25C33.4142 23.25 33.75 22.9142 33.75 22.5V22.125C33.75 21.0938 34.7597 20.25 36 20.25C37.2403 20.25 38.25 21.0938 38.25 22.125C38.25 23.1562 37.2403 24 36 24C35.5858 24 35.25 24.3358 35.25 24.75V25.5C35.25 25.9142 35.5858 26.25 36 26.25C36.4142 26.25 36.75 25.9142 36.75 25.5V25.4325C38.46 25.1184 39.75 23.7544 39.75 22.125C39.75 20.2641 38.0681 18.75 36 18.75ZM45.75 24C45.75 29.3848 41.3848 33.75 36 33.75C30.6152 33.75 26.25 29.3848 26.25 24C26.25 18.6152 30.6152 14.25 36 14.25C41.3824 14.2557 45.7443 18.6176 45.75 24ZM44.25 24C44.25 19.4437 40.5563 15.75 36 15.75C31.4437 15.75 27.75 19.4437 27.75 24C27.75 28.5563 31.4437 32.25 36 32.25C40.5542 32.2448 44.2448 28.5542 44.25 24Z" fill="white"/>
</g>
<defs>
<clipPath id="clip0_2_8">
<rect width="24" height="24" fill="white" transform="translate(24 12)"/>
</clipPath>
</defs>
</svg>
